<?xml version="1.0" standalone="no"?><!DOCTYPE svg PUBLIC "-//W3C//DTD SVG 1.1//EN" "http://www.w3.org/Graphics/SVG/1.1/DTD/svg11.dtd"><svg t="1692280259342" class="icon" viewBox="0 0 1024 1024" version="1.1" xmlns="http://www.w3.org/2000/svg" p-id="42063" data-spm-anchor-id="a313x.search_index.0.i26.24253a81LUpTgu" width="40" height="40" xmlns:xlink="http://www.w3.org/1999/xlink"><path d="M739.7 250.5h-44.6c-10.6-64-66.2-112.9-133.1-112.9h-96c-66.9 0-122.6 48.9-133.1 112.9h-44.6c-80.3 0-145.7 65.4-145.7 145.7v347c0 80.3 65.4 145.7 145.7 145.7h451.4c80.3 0 145.7-65.4 145.7-145.7v-347c0-80.4-65.4-145.7-145.7-145.7zM466 180.3h96c43.3 0 79.6 29.9 89.6 70.2H376.5c9.9-40.3 46.3-70.2 89.5-70.2z m376.7 562.8c0 56.8-46.2 103-103 103H288.3c-56.8 0-103-46.2-103-103v-254H291v10.8c0 33.7 27.4 61.1 61.1 61.1h35.2c33.7 0 61.1-27.4 61.1-61.1v-10.8h130.8v10.8c0 33.7 27.4 61.1 61.1 61.1h35.2c33.7 0 61.1-27.4 61.1-61.1v-10.8h105.7v254zM333.8 499.9v-64.3c0-10.2 8.3-18.4 18.4-18.4h35.2c10.2 0 18.4 8.3 18.4 18.4v64.3c0 10.2-8.3 18.4-18.4 18.4h-35.2c-10.1 0-18.4-8.2-18.4-18.4z m288.3 0v-64.3c0-10.2 8.3-18.4 18.4-18.4h35.2c10.2 0 18.4 8.3 18.4 18.4v64.3c0 10.2-8.3 18.4-18.4 18.4h-35.2c-10.1 0-18.4-8.2-18.4-18.4z m220.6-53.5H736.9v-10.8c0-33.7-27.4-61.1-61.1-61.1h-35.2c-33.7 0-61.1 27.4-61.1 61.1v10.8H448.6v-10.8c0-33.7-27.4-61.1-61.1-61.1h-35.2c-33.7 0-61.1 27.4-61.1 61.1v10.8H185.3v-50.2c0-56.8 46.2-103 103-103h42.8v0.7h365.8v-0.7h42.8c56.8 0 103 46.2 103 103v50.2z" p-id="42064" fill="#3399fe"></path><path d="M624.5 592.6v34H478c-3.6-6.8-10.7-11.5-19-11.5H286.1c-11.8 0-21.4 9.6-21.4 21.4v100.3c0 11.8 9.6 21.4 21.4 21.4H459c7.8 0 14.6-4.2 18.3-10.4h147.1v67.4c0 11.8 9.6 21.4 21.4 21.4h11.5c63.3 0 114.7-51.5 114.7-114.7V592.6c0-11.8-9.6-21.4-21.4-21.4H645.8c-11.7 0-21.3 9.6-21.3 21.4z m42.7 55.3v-34h62.2v107.8c0 37.1-26.6 66.7-62.2 71.4v-66.8c0-11.8-9.6-21.4-21.4-21.4H459.1c-7.8 0-14.6 4.2-18.3 10.4H307.5v-57.6h132.6c3.6 6.8 10.7 11.5 19 11.5h186.8c11.7 0.1 21.3-9.5 21.3-21.3z" p-id="42065" fill="#3399fe"></path></svg>